<svg width="408" height="211" viewBox="0 0 408 211" fill="none" xmlns="http://www.w3.org/2000/svg">
<path d="M62.035 72.288H97.875V92H41.555V2.39999H97.235V22.112H62.035V36.96H94.035V56.416H62.035V72.288ZM197.509 42.08V49.76C197.509 63.1573 193.328 73.8667 184.965 81.888C176.688 89.824 166.149 93.792 153.349 93.792C139.44 93.792 127.877 89.312 118.661 80.352C109.53 71.392 104.965 60.384 104.965 47.328C104.965 34.272 109.488 23.2213 118.533 14.176C127.664 5.13066 138.8 0.607994 151.941 0.607994C160.304 0.607994 167.941 2.48533 174.853 6.24C181.85 9.99466 187.269 14.944 191.109 21.088L173.701 31.072C171.738 28 168.794 25.4827 164.869 23.52C161.029 21.5573 156.677 20.576 151.813 20.576C144.218 20.576 137.904 23.0933 132.869 28.128C127.92 33.1627 125.445 39.6053 125.445 47.456C125.445 55.2213 128.005 61.5787 133.125 66.528C138.245 71.392 145.072 73.824 153.605 73.824C165.466 73.824 173.104 69.216 176.517 60H152.581V42.08H197.509ZM284.831 80.352C275.786 89.312 264.778 93.792 251.807 93.792C238.836 93.792 227.828 89.312 218.783 80.352C209.738 71.392 205.215 60.3413 205.215 47.2C205.215 34.0587 209.738 23.008 218.783 14.048C227.828 5.08799 238.836 0.607994 251.807 0.607994C264.778 0.607994 275.786 5.08799 284.831 14.048C293.876 23.008 298.399 34.0587 298.399 47.2C298.399 60.3413 293.876 71.392 284.831 80.352ZM233.119 66.4C238.154 71.3493 244.383 73.824 251.807 73.824C259.231 73.824 265.418 71.3493 270.367 66.4C275.402 61.4507 277.919 55.0507 277.919 47.2C277.919 39.3493 275.402 32.9493 270.367 28C265.418 23.0507 259.231 20.576 251.807 20.576C244.383 20.576 238.154 23.0507 233.119 28C228.17 32.9493 225.695 39.3493 225.695 47.2C225.695 55.0507 228.17 61.4507 233.119 66.4ZM357.034 92L340.138 62.56H330.41V92H309.93V2.39999H345.77C354.303 2.39999 361.557 5.38666 367.53 11.36C373.503 17.3333 376.49 24.5867 376.49 33.12C376.49 38.5813 374.954 43.6587 371.882 48.352C368.895 52.96 364.927 56.544 359.978 59.104L379.05 92H357.034ZM330.41 21.6V44.64H345.77C348.586 44.64 350.975 43.5307 352.938 41.312C354.986 39.0933 356.01 36.3627 356.01 33.12C356.01 29.8773 354.986 27.1467 352.938 24.928C350.975 22.7093 348.586 21.6 345.77 21.6H330.41Z" fill="#F7F7F7" fill-opacity="0.2"/>
<path d="M36.5825 119.4C48.9558 119.4 59.2812 123.709 67.5585 132.328C75.9212 140.861 80.1025 151.485 80.1025 164.2C80.1025 176.915 75.9212 187.581 67.5585 196.2C59.2812 204.733 48.9558 209 36.5825 209H0.7425V119.4H36.5825ZM36.5825 189.288C43.6652 189.288 49.3825 187.027 53.7345 182.504C58.1718 177.896 60.3905 171.795 60.3905 164.2C60.3905 156.605 58.1718 150.547 53.7345 146.024C49.3825 141.416 43.6652 139.112 36.5825 139.112H21.2225V189.288H36.5825ZM164.066 209H140.77L112.098 167.528V209H91.6175V119.4H112.098V158.312L139.49 119.4H162.786L132.578 163.048L164.066 209ZM239.894 197.352C230.848 206.312 219.84 210.792 206.87 210.792C193.899 210.792 182.891 206.312 173.846 197.352C164.8 188.392 160.278 177.341 160.278 164.2C160.278 151.059 164.8 140.008 173.846 131.048C182.891 122.088 193.899 117.608 206.87 117.608C219.84 117.608 230.848 122.088 239.894 131.048C248.939 140.008 253.462 151.059 253.462 164.2C253.462 177.341 248.939 188.392 239.894 197.352ZM188.182 183.4C193.216 188.349 199.446 190.824 206.87 190.824C214.294 190.824 220.48 188.349 225.43 183.4C230.464 178.451 232.982 172.051 232.982 164.2C232.982 156.349 230.464 149.949 225.43 145C220.48 140.051 214.294 137.576 206.87 137.576C199.446 137.576 193.216 140.051 188.182 145C183.232 149.949 180.758 156.349 180.758 164.2C180.758 172.051 183.232 178.451 188.182 183.4ZM314.913 119.4H335.393V209H320.033L285.473 160.36V209H264.993V119.4H280.353L314.913 168.04V119.4ZM371.223 189.288H407.062V209H350.743V119.4H406.423V139.112H371.223V153.96H403.223V173.416H371.223V189.288Z" fill="#F7F7F7" fill-opacity="0.2"/>
</svg>
