<svg width="62" height="62" viewBox="0 0 62 62" fill="none" xmlns="http://www.w3.org/2000/svg">
<rect width="61.6057" height="61.6057" rx="30.8029" fill="black"/>
<path d="M42.0351 20.7058C45.6651 26.0807 47.4578 32.1436 46.7877 39.1233C46.7849 39.1528 46.7696 39.1799 46.7455 39.1977C43.9965 41.2305 41.3332 42.4642 38.7072 43.2824C38.6867 43.2886 38.6648 43.2883 38.6446 43.2814C38.6243 43.2745 38.6067 43.2614 38.5943 43.2439C37.9876 42.3938 37.4363 41.4976 36.9534 40.5564C36.9257 40.501 36.951 40.4343 37.008 40.4124C37.8835 40.0802 38.716 39.6821 39.5167 39.2107C39.5798 39.1735 39.5838 39.0824 39.5256 39.0387C39.3556 38.9117 39.1873 38.7781 39.0262 38.6446C38.996 38.6199 38.9555 38.6151 38.9213 38.6317C33.7227 41.0493 28.028 41.0493 22.7679 38.6317C22.7338 38.6163 22.6932 38.6215 22.6638 38.6458C22.5031 38.7794 22.3344 38.9117 22.166 39.0387C22.1078 39.0824 22.1126 39.1735 22.1761 39.2107C22.9768 39.6732 23.8093 40.0802 24.6836 40.414C24.7402 40.4359 24.7671 40.501 24.739 40.5564C24.2665 41.4988 23.7153 42.395 23.0974 43.2452C23.0704 43.2795 23.0262 43.2953 22.9845 43.2824C20.3709 42.4642 17.7075 41.2305 14.9586 39.1977C14.9357 39.1799 14.9192 39.1516 14.9168 39.1221C14.3567 33.0847 15.4982 26.9717 19.665 20.7045C19.675 20.688 19.6903 20.675 19.708 20.6673C21.7582 19.7197 23.9548 19.0225 26.2505 18.6244C26.2923 18.6179 26.3341 18.6373 26.3558 18.6746C26.6394 19.1803 26.9637 19.8289 27.183 20.359C29.6029 19.9867 32.0606 19.9867 34.5311 20.359C34.7505 19.8403 35.0635 19.1803 35.3459 18.6746C35.356 18.6561 35.3716 18.6413 35.3905 18.6323C35.4094 18.6233 35.4306 18.6205 35.4512 18.6244C37.7481 19.0237 39.9446 19.7209 41.9933 20.6673C42.0114 20.675 42.0262 20.688 42.0351 20.7058ZM28.4133 32.1848C28.4386 30.4001 27.1465 28.9232 25.5245 28.9232C23.9158 28.9232 22.6361 30.3871 22.6361 32.1848C22.6361 33.9822 23.9411 35.4461 25.5245 35.4461C27.1336 35.4461 28.4133 33.9822 28.4133 32.1848ZM39.0933 32.1848C39.1186 30.4001 37.8265 28.9232 36.2049 28.9232C34.5958 28.9232 33.3161 30.3871 33.3161 32.1848C33.3161 33.9822 34.6211 35.4461 36.2049 35.4461C37.8265 35.4461 39.0933 33.9822 39.0933 32.1848Z" fill="white"/>
</svg>
