<svg width="62" height="62" viewBox="0 0 62 62" fill="none" xmlns="http://www.w3.org/2000/svg">
<rect width="61.6057" height="61.6057" rx="30.8029" fill="black"/>
<path fill-rule="evenodd" clip-rule="evenodd" d="M16.643 21.3191C16.1479 22.2906 16.1479 23.5624 16.1479 26.1059V35.7947C16.1479 38.3383 16.1479 39.61 16.643 40.5816C17.0784 41.4361 17.7732 42.1309 18.6277 42.5663C19.5992 43.0613 20.871 43.0613 23.4145 43.0613H39.1588C41.7024 43.0613 42.9741 43.0613 43.9456 42.5663C44.8002 42.1309 45.495 41.4361 45.9304 40.5816C46.4254 39.61 46.4254 38.3383 46.4254 35.7947V26.1059C46.4254 23.5624 46.4254 22.2906 45.9304 21.3191C45.495 20.4646 44.8002 19.7698 43.9456 19.3344C42.9741 18.8394 41.7024 18.8394 39.1588 18.8394H23.4145C20.871 18.8394 19.5992 18.8394 18.6277 19.3344C17.7732 19.7698 17.0784 20.4646 16.643 21.3191ZM24.5737 25.1604C23.8842 24.6874 22.9419 24.8629 22.4689 25.5523C21.996 26.2418 22.1715 27.1841 22.8609 27.6571L28.7175 31.6747C30.2657 32.7367 32.3077 32.7367 33.8558 31.6747L39.7124 27.6571C40.4019 27.1841 40.5774 26.2418 40.1044 25.5523C39.6314 24.8629 38.6891 24.6874 37.9997 25.1604L32.1431 29.178C31.627 29.532 30.9463 29.532 30.4303 29.178L24.5737 25.1604Z" fill="white"/>
</svg>
