<svg width="62" height="62" viewBox="0 0 62 62" fill="none" xmlns="http://www.w3.org/2000/svg">
<rect width="61.6057" height="61.6057" rx="30.8029" fill="black"/>
<path d="M31.0255 13.4567C28.6299 13.4567 26.2579 13.9285 24.0447 14.8452C21.8315 15.762 19.8206 17.1056 18.1267 18.7995C14.7057 22.2205 12.7838 26.8603 12.7838 31.6983C12.7838 39.7611 18.0192 46.6017 25.2611 49.0279C26.1732 49.1738 26.465 48.6083 26.465 48.1158C26.465 47.6962 26.465 46.547 26.465 45.0329C21.4121 46.1274 20.3359 42.5886 20.3359 42.5886C19.4967 40.4725 18.311 39.907 18.311 39.907C16.651 38.7761 18.4387 38.8125 18.4387 38.8125C20.2629 38.9402 21.2297 40.6914 21.2297 40.6914C22.8167 43.4642 25.4982 42.6433 26.538 42.2055C26.7022 41.0198 27.1765 40.2172 27.6872 39.7611C23.6376 39.3051 19.3873 37.7363 19.3873 30.7862C19.3873 28.7614 20.0805 27.1379 21.2662 25.8427C21.0838 25.3867 20.4453 23.4896 21.4486 21.0269C21.4486 21.0269 22.9809 20.5344 26.465 22.8876C27.9061 22.4863 29.4749 22.2856 31.0255 22.2856C32.576 22.2856 34.1448 22.4863 35.5859 22.8876C39.07 20.5344 40.6023 21.0269 40.6023 21.0269C41.6056 23.4896 40.9671 25.3867 40.7847 25.8427C41.9704 27.1379 42.6636 28.7614 42.6636 30.7862C42.6636 37.7545 38.3951 39.2868 34.3272 39.7429C34.9839 40.3084 35.5859 41.4211 35.5859 43.1176V48.1158C35.5859 48.6083 35.8777 49.192 36.8081 49.0279C44.05 46.5835 49.2671 39.7611 49.2671 31.6983C49.2671 29.3028 48.7953 26.9307 47.8785 24.7175C46.9618 22.5044 45.6181 20.4934 43.9242 18.7995C42.2303 17.1056 40.2194 15.762 38.0062 14.8452C35.7931 13.9285 33.421 13.4567 31.0255 13.4567Z" fill="white"/>
</svg>
