<svg width="62" height="62" viewBox="0 0 62 62" fill="none" xmlns="http://www.w3.org/2000/svg">
<rect width="61.6057" height="61.6057" rx="30.8029" fill="black"/>
<path d="M17.139 29.7117C17.139 29.7117 29.6725 24.4328 34.0193 22.574C35.6857 21.8305 41.3366 19.4512 41.3366 19.4512C41.3366 19.4512 43.9448 18.4103 43.7274 20.9382C43.6549 21.9792 43.0753 25.6223 42.4958 29.563C41.6264 35.1394 40.6845 41.2361 40.6845 41.2361C40.6845 41.2361 40.5397 42.9463 39.3081 43.2437C38.0765 43.541 36.0479 42.2028 35.6857 41.9053C35.3958 41.6823 30.2521 38.3364 28.3684 36.7007C27.8613 36.2546 27.2817 35.3625 28.4408 34.3215C31.049 31.8679 34.1642 28.8195 36.0479 26.8864C36.9173 25.9941 37.7866 23.9123 34.1642 26.4402C29.0205 30.0835 23.9491 33.5036 23.9491 33.5036C23.9491 33.5036 22.7899 34.2471 20.6165 33.5779C18.443 32.9089 15.9073 32.0166 15.9073 32.0166C15.9073 32.0166 14.1687 30.9013 17.139 29.7117Z" fill="white"/>
</svg>
