<svg width="62" height="62" viewBox="0 0 62 62" fill="none" xmlns="http://www.w3.org/2000/svg">
<rect width="61.6057" height="61.6057" rx="30.8029" fill="black"/>
<path d="M46.0927 21.0496C45.0755 21.4877 44.0061 21.7928 42.9109 21.9573C43.4229 21.8695 44.1763 20.9471 44.4762 20.5737C44.9318 20.0105 45.279 19.3676 45.5002 18.6776C45.5002 18.6264 45.5514 18.5532 45.5002 18.5166C45.4744 18.5025 45.4455 18.4951 45.4161 18.4951C45.3867 18.4951 45.3578 18.5025 45.332 18.5166C44.1428 19.1611 42.8772 19.653 41.5651 19.9807C41.5194 19.9947 41.4707 19.996 41.4243 19.9843C41.3779 19.9727 41.3356 19.9487 41.3018 19.9148C41.1996 19.7931 41.0897 19.6782 40.9726 19.5708C40.4375 19.0908 39.8303 18.698 39.1733 18.4067C38.2865 18.0426 37.3286 17.8849 36.3719 17.9455C35.4437 18.0042 34.5374 18.2534 33.7095 18.6776C32.8942 19.1249 32.1777 19.7325 31.603 20.4639C30.9984 21.2167 30.562 22.0904 30.323 23.0262C30.1259 23.9163 30.1035 24.8362 30.2572 25.7349C30.2572 25.8886 30.2572 25.9106 30.1255 25.8886C24.9104 25.1199 20.6315 23.2678 17.1353 19.2926C16.9817 19.1169 16.9012 19.1169 16.7769 19.2926C15.2555 21.6059 15.9942 25.2664 17.8959 27.0746C18.1519 27.3162 18.4153 27.5505 18.6932 27.7701C17.8213 27.7081 16.9706 27.4716 16.1917 27.0746C16.0454 26.9794 15.965 27.0307 15.9576 27.2064C15.9369 27.45 15.9369 27.6949 15.9576 27.9385C16.1103 29.1058 16.5699 30.2117 17.2896 31.143C18.0093 32.0742 18.9631 32.7975 20.0537 33.2387C20.3195 33.3527 20.5965 33.4386 20.8802 33.495C20.073 33.654 19.2451 33.6788 18.4299 33.5682C18.2543 33.5316 18.1885 33.6267 18.2543 33.7951C19.3296 36.7234 21.6628 37.6166 23.3744 38.1144C23.6084 38.151 23.8425 38.151 24.1058 38.2096C24.1058 38.2096 24.1058 38.2096 24.0619 38.2535C23.5572 39.1759 21.5165 39.7982 20.5803 40.1203C18.8714 40.7347 17.0495 40.9695 15.2408 40.8085C14.9556 40.7645 14.8898 40.7719 14.8166 40.8085C14.7435 40.8451 14.8166 40.9256 14.8971 40.9988C15.2628 41.2404 15.6285 41.4527 16.0088 41.6577C17.1411 42.2758 18.3382 42.7669 19.5782 43.1218C26.0002 44.8935 33.2268 43.5904 38.0469 38.7952C41.8357 35.0323 43.1669 29.8419 43.1669 24.6441C43.1669 24.4464 43.4083 24.3293 43.5473 24.2268C44.5058 23.4793 45.3509 22.5964 46.0561 21.6059C46.1782 21.4583 46.2408 21.2703 46.2316 21.0788C46.2316 20.969 46.2316 20.991 46.0927 21.0496Z" fill="white"/>
</svg>
