<svg width="212" height="28" viewBox="0 0 212 28" fill="none" xmlns="http://www.w3.org/2000/svg">
<path d="M198 28L210.124 7H185.876L198 28Z" fill="black"/>
<path d="M152 28L164.124 7H139.876L152 28Z" fill="black"/>
<path d="M152 20L157.196 11H146.804L152 20Z" fill="white"/>
<path d="M106 28L118.124 7H93.8756L106 28Z" fill="black"/>
<path d="M106 20L111.196 11H100.804L106 20Z" fill="white"/>
<path d="M60 28L72.1244 7H47.8756L60 28Z" fill="black"/>
<path d="M60 20L65.1962 11H54.8038L60 20Z" fill="white"/>
<path d="M14 28L26.1244 7H1.87564L14 28Z" fill="black"/>
<path d="M14 20L19.1962 11H8.80385L14 20Z" fill="white"/>
</svg>
