<svg width="62" height="62" viewBox="0 0 62 62" fill="none" xmlns="http://www.w3.org/2000/svg">
<rect width="61.6057" height="61.6057" rx="30.8029" fill="black"/>
<path d="M32.4642 24.8948C33.6687 24.8948 34.8239 25.3733 35.6756 26.225C36.5273 27.0767 37.0058 28.2319 37.0058 29.4364C37.0058 29.8379 37.1653 30.223 37.4492 30.5069C37.7331 30.7908 38.1182 30.9503 38.5197 30.9503C38.9212 30.9503 39.3062 30.7908 39.5902 30.5069C39.8741 30.223 40.0336 29.8379 40.0336 29.4364C40.0336 27.4289 39.2361 25.5036 37.8165 24.0841C36.397 22.6645 34.4717 21.8671 32.4642 21.8671C32.0627 21.8671 31.6776 22.0266 31.3937 22.3105C31.1098 22.5944 30.9503 22.9794 30.9503 23.3809C30.9503 23.7824 31.1098 24.1675 31.3937 24.4514C31.6776 24.7353 32.0627 24.8948 32.4642 24.8948Z" fill="white"/>
<path d="M32.4642 18.8393C35.2747 18.8393 37.9701 19.9557 39.9575 21.9431C41.9448 23.9304 43.0613 26.6258 43.0613 29.4364C43.0613 29.8379 43.2208 30.2229 43.5047 30.5068C43.7886 30.7908 44.1737 30.9503 44.5752 30.9503C44.9767 30.9503 45.3617 30.7908 45.6456 30.5068C45.9295 30.2229 46.089 29.8379 46.089 29.4364C46.089 25.8228 44.6536 22.3573 42.0984 19.8022C39.5433 17.247 36.0777 15.8115 32.4642 15.8115C32.0627 15.8115 31.6776 15.971 31.3937 16.2549C31.1098 16.5388 30.9503 16.9239 30.9503 17.3254C30.9503 17.7269 31.1098 18.112 31.3937 18.3959C31.6776 18.6798 32.0627 18.8393 32.4642 18.8393Z" fill="white"/>
<path d="M45.7105 36.8695C45.6272 36.6265 45.4835 36.4086 45.2928 36.2365C45.1021 36.0643 44.8708 35.9435 44.6205 35.8855L35.5373 33.8115C35.2907 33.7556 35.0341 33.7623 34.7908 33.8311C34.5475 33.8998 34.3253 34.0284 34.1445 34.2051C33.9326 34.4019 33.9174 34.417 32.9334 36.2942C29.6683 34.7897 27.052 32.1626 25.5609 28.8914C27.4835 27.9225 27.4986 27.9225 27.6954 27.6954C27.8721 27.5146 28.0007 27.2924 28.0694 27.0491C28.1382 26.8058 28.1449 26.5492 28.089 26.3027L26.015 17.3254C25.957 17.0751 25.8362 16.8438 25.664 16.6531C25.4919 16.4624 25.274 16.3187 25.031 16.2354C24.6775 16.1091 24.3124 16.0179 23.941 15.9629C23.5584 15.8742 23.1679 15.8235 22.7753 15.8115C20.9284 15.8115 19.1571 16.5452 17.8512 17.8512C16.5452 19.1571 15.8115 20.9284 15.8115 22.7753C15.8195 28.956 18.2784 34.8813 22.6488 39.2517C27.0192 43.6221 32.9445 46.081 39.1252 46.089C40.0397 46.089 40.9452 45.9089 41.7901 45.5589C42.635 45.2089 43.4027 44.696 44.0493 44.0493C44.696 43.4027 45.2089 42.635 45.5589 41.7901C45.9088 40.9452 46.089 40.0397 46.089 39.1252C46.0894 38.7398 46.0591 38.3551 45.9981 37.9746C45.9345 37.5986 45.8383 37.2288 45.7105 36.8695Z" fill="white"/>
</svg>
