<svg width="62" height="62" viewBox="0 0 62 62" fill="none" xmlns="http://www.w3.org/2000/svg">
<rect width="61.6045" height="61.6045" rx="30.8023" fill="black"/>
<path fill-rule="evenodd" clip-rule="evenodd" d="M48.7773 21.9321C49.0376 21.1177 48.7773 20.5193 47.5382 20.5193H43.4411C42.3993 20.5193 41.919 21.0362 41.6585 21.6063C41.6585 21.6063 39.575 26.3703 36.6234 29.4649C35.6684 30.3607 35.2343 30.6457 34.7134 30.6457C34.453 30.6457 34.076 30.3607 34.076 29.5464V21.9321C34.076 20.9548 33.7737 20.5193 32.9055 20.5193H26.467C25.816 20.5193 25.4245 20.9729 25.4245 21.4027C25.4245 22.3291 26.9002 22.5428 27.0523 25.1488V30.8087C27.0523 32.0496 26.8135 32.2745 26.2926 32.2745C24.9036 32.2745 21.5249 27.4892 19.5211 22.0135C19.1284 20.9492 18.7345 20.5193 17.6874 20.5193H13.5902C12.4196 20.5193 12.1854 21.0362 12.1854 21.6063C12.1854 22.6243 13.5745 27.6733 18.653 34.3511C22.0387 38.9115 26.8089 41.3836 31.1495 41.3836C33.7539 41.3836 34.0761 40.8345 34.0761 39.8888V36.442C34.0761 35.3439 34.3228 35.1248 35.1475 35.1248C35.7552 35.1248 36.797 35.4098 39.2278 37.6086C42.0058 40.2145 42.4638 41.3836 44.0264 41.3836H48.1236C49.2942 41.3836 49.8795 40.8345 49.5418 39.751C49.1723 38.6711 47.846 37.1042 46.0861 35.2469C45.1311 34.1882 43.6987 33.0482 43.2646 32.478C42.6569 31.7452 42.8305 31.4194 43.2646 30.7679C43.2646 30.7679 48.2564 24.1715 48.7773 21.9321Z" fill="white"/>
</svg>
